PathFileType        4      (X/Y/Z)      Flexion.trc         																																																																												
DataRate	CameraRate	NumFrames	NumMarkers	Units	OrigDataRate	OrigDataStartFrame	OrigNumFrames																																																																					
100	100	5	25	mm	100	1	1053																																																																					
Frame#	Time	AA			AI			Ant_Sh			CV7			GH			LAH			Lat_Sh			LCAJ			LPH			Post_Sh			RAH			RCAJ			RHLE			RHME			RPH			RUA			SJN			SXS			TS			TV8			centelbow			centpxt8			centijc7			centLPHRPH			ScapulaThoracicContactPt		
		X1	Y1	Z1	X2	Y2	Z2	X3	Y3	Z3	X4	Y4	Z4	X5	Y5	Z5	X6	Y6	Z6	X7	Y7	Z7	X8	Y8	Z8	X9	Y9	Z9	X10	Y10	Z10	X11	Y11	Z11	X12	Y12	Z12	X13	Y13	Z13	X14	Y14	Z14	X15	Y15	Z15	X16	Y16	Z16	X17	Y17	Z17	X18	Y18	Z18	X19	Y19	Z19	X20	Y20	Z20	X21	Y21	Z21	X22	Y22	Z22	X23	Y23	Z23	X24	Y24	Z24	X25	Y25	Z25
1	0	-878.0580444	1530.64624	-407.8024292	-931.604126	1353.415649	-473.8147583	-766.3569336	1498.526123	-415.2834473	-899.6108398	1591.756592	-605.359375	-821.677063	1496.619995	-412.5158997	-686.65448	1771.983521	-653.9034424	-820.6912231	1514.822021	-380.2731628	-846.1696777	1554.449219	-791.124939	-891.3943481	1726.859497	-661.7084961	-904.6642456	1493.760376	-408.3642273	-687.944397	1768.51001	-556.9832764	-824.0652466	1563.415771	-440.0531006	-787.9393311	1224.262085	-301.4270325	-829.3682251	1175.117432	-402.2641602	-887.9949341	1726.838379	-544.7904663	-889.6620483	1345.564453	-351.3789978	-730.4498901	1510.200439	-615.2208252	-669.3397217	1338.753784	-617.2954102	-940.4157104	1496.196167	-514.4458618	-904.5892944	1301.019043	-606.6261597	-808.6537781	1199.689758	-351.8455963	-786.9645081	1319.886414	-611.9607849	-815.030365	1550.978516	-610.2901001	-889.6946411	1726.848938	-603.2494812	-916.692627	1460.086019	-465.3543498
2	0.01	-878.1327515	1530.64563	-407.7623596	-931.7019043	1353.420044	-473.809967	-766.4522705	1498.546753	-415.2657776	-899.7209473	1591.786377	-605.3795776	-821.7803345	1496.631958	-412.5175476	-686.7779541	1771.999878	-653.9094238	-820.805542	1514.833252	-380.2103271	-846.2571411	1554.437622	-791.1367188	-891.505127	1726.85083	-661.6975098	-904.781311	1493.759155	-408.3947754	-688.0802612	1768.5177	-556.9736938	-824.1557617	1563.438721	-440.0028381	-788.0239258	1224.244995	-301.4507141	-829.4563599	1175.12854	-402.3010864	-888.1125488	1726.850342	-544.8337402	-889.7189941	1345.539307	-351.3757935	-730.5574341	1510.207031	-615.2078857	-669.4378662	1338.801025	-617.326355	-940.5345459	1496.177979	-514.442688	-904.6469727	1300.964355	-606.6628418	-808.7401428	1199.686768	-351.8759003	-787.0424194	1319.88269	-611.9945984	-815.1391907	1550.996704	-610.2937317	-889.8088379	1726.850586	-603.265625	-916.7897339	1460.081217	-465.3383382
3	0.02	-878.2554321	1530.621582	-407.7980957	-931.7925415	1353.392212	-473.8434753	-766.5994873	1498.484375	-415.2288818	-899.8357544	1591.737549	-605.3815308	-821.8782959	1496.58374	-412.4809265	-686.8792114	1771.980225	-653.8718872	-820.9029541	1514.826904	-380.2428589	-846.3413086	1554.415039	-791.1174927	-891.6207886	1726.829224	-661.7058105	-904.8973389	1493.729248	-408.3540039	-688.1942139	1768.515503	-556.9650269	-824.2750854	1563.432007	-440.0310059	-788.1373901	1224.222778	-301.4570923	-829.5474854	1175.115479	-402.2714539	-888.2504883	1726.820313	-544.8171387	-889.8278809	1345.555176	-351.3997192	-730.6428223	1510.214966	-615.2212524	-669.5535278	1338.807495	-617.2998047	-940.5908813	1496.16394	-514.4394531	-904.7555542	1300.947632	-606.7043457	-808.8424377	1199.669128	-351.8642731	-787.154541	1319.877563	-612.0020752	-815.2392883	1550.976257	-610.3013916	-889.9356384	1726.824768	-603.2614746	-916.8796183	1460.059245	-465.3603414
4	0.03	-878.3790894	1530.595825	-407.7667236	-931.8597412	1353.361938	-473.8335571	-766.6864624	1498.478027	-415.2424011	-899.9175415	1591.764282	-605.397522	-821.9881592	1496.58313	-412.4830933	-687.0233765	1772.012329	-653.8933105	-821.0048828	1514.815674	-380.256073	-846.4580688	1554.417236	-791.1253052	-891.7182617	1726.810425	-661.7297974	-904.9912109	1493.739136	-408.3415833	-688.3048096	1768.533203	-556.9213257	-824.4141846	1563.430786	-440.0371094	-788.2225342	1224.204712	-301.48172	-829.6174316	1175.105225	-402.3016968	-888.4195557	1726.78064	-544.8377075	-889.8972778	1345.493652	-351.4066162	-730.7516479	1510.207275	-615.2163086	-669.6796875	1338.775146	-617.3259888	-940.7254639	1496.134766	-514.4324341	-904.8361816	1300.960693	-606.6809082	-808.9199829	1199.654968	-351.8917084	-787.2579346	1319.86792	-612.0034485	-815.3345947	1550.985779	-610.3069153	-890.0689087	1726.795532	-603.2837524	-916.9880981	1460.030843	-465.3442383
5	0.04	-878.4759521	1530.606201	-407.7445679	-931.9574585	1353.366577	-473.8287964	-766.7678223	1498.523438	-415.252533	-900.0343018	1591.755859	-605.3861084	-822.1205444	1496.604004	-412.4992065	-687.1311646	1771.993286	-653.8796387	-821.1468506	1514.7854	-380.2498474	-846.5668335	1554.345947	-791.1034546	-891.8410645	1726.797607	-661.7285767	-905.1293335	1493.725708	-408.3702087	-688.4711914	1768.518921	-556.8834839	-824.5126343	1563.432617	-440.0174255	-788.2958374	1224.210571	-301.4938965	-829.7635498	1175.085449	-402.3443909	-888.571228	1726.729614	-544.8598022	-889.9980469	1345.50769	-351.407074	-730.8399658	1510.220093	-615.2011108	-669.7668457	1338.783813	-617.3031006	-940.8049927	1496.128784	-514.4614868	-904.9348755	1300.898315	-606.6582642	-809.0296936	1199.64801	-351.9191437	-787.3508606	1319.841064	-611.9806824	-815.4371338	1550.987976	-610.2936096	-890.2061462	1726.763611	-603.2941895	-917.0794678	1460.033854	-465.3449504
